<mxfile host="app.diagrams.net" modified="2023-03-30T02:07:34.196Z" agent="Mozilla/5.0 (Windows NT 10.0; Win64; x64) AppleWebKit/537.36 (KHTML, like Gecko) Chrome/111.0.0.0 Safari/537.36" etag="vXY8MfmdEwpeXvGBFyTz" version="21.1.1" type="device">
  <diagram name="Page-1" id="aSxSkt7sZLIUt6ktCKQe">
    <mxGraphModel dx="1238" dy="640" grid="1" gridSize="10" guides="1" tooltips="1" connect="1" arrows="1" fold="1" page="1" pageScale="1" pageWidth="413" pageHeight="583" math="0" shadow="0">
      <root>
        <mxCell id="0" />
        <mxCell id="1" parent="0" />
        <mxCell id="rv_IDBvS3JnQRnEhm7O6-2" style="rounded=0;orthogonalLoop=1;jettySize=auto;html=1;entryX=1;entryY=0.5;entryDx=0;entryDy=0;" parent="1" source="rv_IDBvS3JnQRnEhm7O6-6" target="rv_IDBvS3JnQRnEhm7O6-16" edge="1">
          <mxGeometry relative="1" as="geometry" />
        </mxCell>
        <mxCell id="rv_IDBvS3JnQRnEhm7O6-6" value="Moderador" style="shape=umlActor;verticalLabelPosition=bottom;verticalAlign=top;html=1;" parent="1" vertex="1">
          <mxGeometry x="700" y="155" width="30" height="60" as="geometry" />
        </mxCell>
        <mxCell id="rv_IDBvS3JnQRnEhm7O6-16" value="Cria Clube" style="ellipse;whiteSpace=wrap;html=1;" parent="1" vertex="1">
          <mxGeometry x="375" y="150" width="80" height="70" as="geometry" />
        </mxCell>
        <mxCell id="rv_IDBvS3JnQRnEhm7O6-18" value="&lt;font style=&quot;font-size: 20px;&quot;&gt;Criação de Clube&lt;/font&gt;" style="text;html=1;strokeColor=none;fillColor=none;align=center;verticalAlign=middle;whiteSpace=wrap;rounded=0;" parent="1" vertex="1">
          <mxGeometry x="354" y="20" width="120" height="30" as="geometry" />
        </mxCell>
        <mxCell id="rv_IDBvS3JnQRnEhm7O6-34" value="Fornecer Informações do clube" style="ellipse;whiteSpace=wrap;html=1;" parent="1" vertex="1">
          <mxGeometry x="185" y="155" width="100" height="60" as="geometry" />
        </mxCell>
        <mxCell id="rv_IDBvS3JnQRnEhm7O6-35" value="Dar um nome" style="ellipse;whiteSpace=wrap;html=1;" parent="1" vertex="1">
          <mxGeometry x="80" y="20" width="90" height="50" as="geometry" />
        </mxCell>
        <mxCell id="rv_IDBvS3JnQRnEhm7O6-36" value="Fornecer descrição" style="ellipse;whiteSpace=wrap;html=1;" parent="1" vertex="1">
          <mxGeometry x="10" y="140" width="90" height="50" as="geometry" />
        </mxCell>
        <mxCell id="rv_IDBvS3JnQRnEhm7O6-37" value="Fornecer uma Imagem de capa" style="ellipse;whiteSpace=wrap;html=1;" parent="1" vertex="1">
          <mxGeometry x="30" y="230" width="115" height="60" as="geometry" />
        </mxCell>
        <mxCell id="rv_IDBvS3JnQRnEhm7O6-59" style="edgeStyle=orthogonalEdgeStyle;rounded=0;orthogonalLoop=1;jettySize=auto;html=1;entryX=0;entryY=0.5;entryDx=0;entryDy=0;" parent="1" source="rv_IDBvS3JnQRnEhm7O6-48" target="rv_IDBvS3JnQRnEhm7O6-57" edge="1">
          <mxGeometry relative="1" as="geometry" />
        </mxCell>
        <mxCell id="rv_IDBvS3JnQRnEhm7O6-48" value="Leitor" style="shape=umlActor;verticalLabelPosition=bottom;verticalAlign=top;html=1;" parent="1" vertex="1">
          <mxGeometry x="100" y="425" width="30" height="60" as="geometry" />
        </mxCell>
        <mxCell id="rv_IDBvS3JnQRnEhm7O6-51" value="&amp;lt;&amp;lt;include&amp;gt;&amp;gt;" style="html=1;verticalAlign=bottom;labelBackgroundColor=none;endArrow=open;endFill=0;dashed=1;rounded=0;" parent="1" source="rv_IDBvS3JnQRnEhm7O6-16" target="rv_IDBvS3JnQRnEhm7O6-34" edge="1">
          <mxGeometry width="160" relative="1" as="geometry">
            <mxPoint x="155" y="280" as="sourcePoint" />
            <mxPoint x="315" y="280" as="targetPoint" />
          </mxGeometry>
        </mxCell>
        <mxCell id="rv_IDBvS3JnQRnEhm7O6-52" value="&amp;lt;&amp;lt;include&amp;gt;&amp;gt;" style="html=1;verticalAlign=bottom;labelBackgroundColor=none;endArrow=open;endFill=0;dashed=1;rounded=0;entryX=1;entryY=1;entryDx=0;entryDy=0;exitX=0;exitY=0.5;exitDx=0;exitDy=0;" parent="1" source="rv_IDBvS3JnQRnEhm7O6-34" target="rv_IDBvS3JnQRnEhm7O6-35" edge="1">
          <mxGeometry width="160" relative="1" as="geometry">
            <mxPoint x="165" y="175" as="sourcePoint" />
            <mxPoint x="-150" as="targetPoint" />
          </mxGeometry>
        </mxCell>
        <mxCell id="rv_IDBvS3JnQRnEhm7O6-53" value="&amp;lt;&amp;lt;include&amp;gt;&amp;gt;" style="html=1;verticalAlign=bottom;labelBackgroundColor=none;endArrow=open;endFill=0;dashed=1;rounded=0;entryX=1;entryY=0.5;entryDx=0;entryDy=0;exitX=0;exitY=0.5;exitDx=0;exitDy=0;" parent="1" source="rv_IDBvS3JnQRnEhm7O6-34" target="rv_IDBvS3JnQRnEhm7O6-36" edge="1">
          <mxGeometry width="160" relative="1" as="geometry">
            <mxPoint x="163" y="167.98000000000002" as="sourcePoint" />
            <mxPoint x="30" y="45" as="targetPoint" />
          </mxGeometry>
        </mxCell>
        <mxCell id="rv_IDBvS3JnQRnEhm7O6-54" value="&amp;lt;&amp;lt;include&amp;gt;&amp;gt;" style="html=1;verticalAlign=bottom;labelBackgroundColor=none;endArrow=open;endFill=0;dashed=1;rounded=0;entryX=1;entryY=0.5;entryDx=0;entryDy=0;exitX=0;exitY=0.5;exitDx=0;exitDy=0;" parent="1" source="rv_IDBvS3JnQRnEhm7O6-34" target="rv_IDBvS3JnQRnEhm7O6-37" edge="1">
          <mxGeometry width="160" relative="1" as="geometry">
            <mxPoint x="165" y="175" as="sourcePoint" />
            <mxPoint x="40" y="55" as="targetPoint" />
          </mxGeometry>
        </mxCell>
        <mxCell id="rv_IDBvS3JnQRnEhm7O6-55" value="Convida pessoas para o clube" style="ellipse;whiteSpace=wrap;html=1;" parent="1" vertex="1">
          <mxGeometry x="370" y="240" width="80" height="70" as="geometry" />
        </mxCell>
        <mxCell id="rv_IDBvS3JnQRnEhm7O6-56" style="rounded=0;orthogonalLoop=1;jettySize=auto;html=1;entryX=1;entryY=0.5;entryDx=0;entryDy=0;" parent="1" target="rv_IDBvS3JnQRnEhm7O6-55" edge="1">
          <mxGeometry relative="1" as="geometry">
            <mxPoint x="700" y="190" as="sourcePoint" />
            <mxPoint x="465" y="195" as="targetPoint" />
            <Array as="points">
              <mxPoint x="640" y="200" />
              <mxPoint x="640" y="275" />
            </Array>
          </mxGeometry>
        </mxCell>
        <mxCell id="rv_IDBvS3JnQRnEhm7O6-57" value="Recebe convite" style="ellipse;whiteSpace=wrap;html=1;" parent="1" vertex="1">
          <mxGeometry x="374" y="420" width="80" height="70" as="geometry" />
        </mxCell>
        <mxCell id="rv_IDBvS3JnQRnEhm7O6-60" value="Envio para e-mail do convidado" style="ellipse;whiteSpace=wrap;html=1;" parent="1" vertex="1">
          <mxGeometry x="560" y="330" width="100" height="70" as="geometry" />
        </mxCell>
        <mxCell id="rv_IDBvS3JnQRnEhm7O6-61" value="&amp;lt;&amp;lt;include&amp;gt;&amp;gt;" style="html=1;verticalAlign=bottom;labelBackgroundColor=none;endArrow=open;endFill=0;dashed=1;rounded=0;entryX=0;entryY=0.5;entryDx=0;entryDy=0;exitX=1;exitY=1;exitDx=0;exitDy=0;" parent="1" source="rv_IDBvS3JnQRnEhm7O6-55" target="rv_IDBvS3JnQRnEhm7O6-60" edge="1">
          <mxGeometry width="160" relative="1" as="geometry">
            <mxPoint x="195" y="195" as="sourcePoint" />
            <mxPoint x="155" y="270" as="targetPoint" />
          </mxGeometry>
        </mxCell>
        <mxCell id="rv_IDBvS3JnQRnEhm7O6-65" value="&amp;lt;&amp;lt;extend&amp;gt;&amp;gt;" style="html=1;verticalAlign=bottom;labelBackgroundColor=none;endArrow=open;endFill=0;dashed=1;rounded=0;exitX=1;exitY=0.5;exitDx=0;exitDy=0;entryX=0.09;entryY=0.829;entryDx=0;entryDy=0;entryPerimeter=0;" parent="1" source="rv_IDBvS3JnQRnEhm7O6-57" target="rv_IDBvS3JnQRnEhm7O6-60" edge="1">
          <mxGeometry width="160" relative="1" as="geometry">
            <mxPoint x="410" y="370" as="sourcePoint" />
            <mxPoint x="570" y="370" as="targetPoint" />
          </mxGeometry>
        </mxCell>
      </root>
    </mxGraphModel>
  </diagram>
</mxfile>
